<svg width="249" height="244" viewBox="0 0 249 244" fill="none" xmlns="http://www.w3.org/2000/svg">
<path d="M244 122C244 97.8707 236.845 74.2833 223.439 54.2205C210.034 34.1577 190.98 18.5206 168.687 9.28675C146.395 0.0528591 121.865 -2.36315 98.199 2.34425C74.5334 7.05165 52.795 18.671 35.733 35.733C18.671 52.795 7.05165 74.5334 2.34426 98.199C-2.36314 121.865 0.052867 146.395 9.28676 168.687C18.5206 190.98 34.1577 210.034 54.2205 223.439C74.2833 236.845 97.8707 244 122 244L122 122L244 122Z" fill="#28A745"/>
<path d="M130.609 213V157H154.781C158.938 157 162.574 157.82 165.691 159.461C168.809 161.102 171.233 163.408 172.965 166.379C174.697 169.35 175.563 172.823 175.563 176.797C175.563 180.807 174.669 184.28 172.883 187.215C171.115 190.15 168.626 192.41 165.418 193.996C162.228 195.582 158.5 196.375 154.234 196.375H139.797V184.563H151.172C152.958 184.563 154.481 184.253 155.738 183.633C157.014 182.995 157.99 182.093 158.664 180.926C159.357 179.759 159.703 178.383 159.703 176.797C159.703 175.193 159.357 173.826 158.664 172.695C157.99 171.547 157.014 170.672 155.738 170.07C154.481 169.451 152.958 169.141 151.172 169.141H145.813V213H130.609ZM205.203 162.578H220.188C224.891 162.578 229.056 163.535 232.684 165.449C236.329 167.363 239.182 170.079 241.242 173.598C243.32 177.116 244.359 181.281 244.359 186.094C244.359 190.651 243.32 194.598 241.242 197.934C239.182 201.27 236.329 203.849 232.684 205.672C229.056 207.495 224.891 208.406 220.188 208.406H205.203C200.464 208.406 196.262 207.504 192.598 205.699C188.952 203.895 186.09 201.315 184.012 197.961C181.952 194.607 180.922 190.615 180.922 185.984C180.922 181.172 181.97 177.016 184.066 173.516C186.181 170.016 189.061 167.318 192.707 165.422C196.371 163.526 200.537 162.578 205.203 162.578ZM205.203 175.047C203.307 175.047 201.557 175.402 199.953 176.113C198.367 176.824 197.091 177.982 196.125 179.586C195.177 181.19 194.703 183.323 194.703 185.984C194.703 188.427 195.195 190.378 196.18 191.836C197.182 193.294 198.477 194.343 200.063 194.981C201.667 195.619 203.38 195.938 205.203 195.938H220.297C222.156 195.938 223.852 195.609 225.383 194.953C226.932 194.279 228.163 193.221 229.074 191.781C230.004 190.323 230.469 188.427 230.469 186.094C230.469 183.432 230.004 181.29 229.074 179.668C228.163 178.046 226.932 176.87 225.383 176.141C223.852 175.412 222.156 175.047 220.297 175.047H205.203ZM219.75 156.016V215.297H205.531V156.016H219.75Z" fill="#28A745"/>
</svg>
